HIERARCHY
ROOT mixamorig:Hips
{
	OFFSET 0.000000 201.639420 0.000000
	CHANNELS 6 Xposition Yposition Zposition Xrotation Yrotation Zrotation
	JOINT mixamorig:Spine
	{
		OFFSET 0.006200 19.524994 -2.481800
		CHANNELS 3 Xrotation Yrotation Zrotation
		JOINT mixamorig:Spine1
		{
			OFFSET -0.000900 22.835007 -2.825400
			CHANNELS 3 Xrotation Yrotation Zrotation
			JOINT mixamorig:Spine2
			{
				OFFSET -0.020600 26.552490 -3.193300
				CHANNELS 3 Xrotation Yrotation Zrotation
				JOINT mixamorig:Neck
				{
					OFFSET -0.060000 30.701813 1.352200
					CHANNELS 3 Xrotation Yrotation Zrotation
					JOINT mixamorig:Head
					{
						OFFSET -0.087200 22.547607 3.670900
						CHANNELS 3 Xrotation Yrotation Zrotation
						JOINT mixamorig:HeadTop_End
						{
							OFFSET -0.830600 40.355194 7.893500
							CHANNELS 3 Xrotation Yrotation Zrotation
							End Site
							{
								OFFSET 0.000000 30.592346 0.000000
							}
						}
						JOINT mixamorig:RightEye
						{
							OFFSET -6.302100 18.118591 16.197100
							CHANNELS 3 Xrotation Yrotation Zrotation
							End Site
							{
								OFFSET 0.000000 30.592346 0.000000
							}
						}
						JOINT mixamorig:LeftEye
						{
							OFFSET 6.741500 18.382690 16.401899
							CHANNELS 3 Xrotation Yrotation Zrotation
							End Site
							{
								OFFSET 0.000000 30.592346 0.000000
							}
						}
					}
				}
				JOINT mixamorig:LeftShoulder
				{
					OFFSET 11.924900 18.230499 1.425400
					CHANNELS 3 Xrotation Yrotation Zrotation
					JOINT mixamorig:LeftArm
					{
						OFFSET 25.435989 -0.697632 -5.229300
						CHANNELS 3 Xrotation Yrotation Zrotation
						JOINT mixamorig:LeftForeArm
						{
							OFFSET 54.684776 0.000000 0.000000
							CHANNELS 3 Xrotation Yrotation Zrotation
							JOINT mixamorig:LeftHand
							{
								OFFSET 55.098175 0.000000 0.000000
								CHANNELS 3 Xrotation Yrotation Zrotation
								JOINT mixamorig:LeftHandMiddle1
								{
									OFFSET 23.369751 0.000000 0.000000
									CHANNELS 3 Xrotation Yrotation Zrotation
									JOINT mixamorig:LeftHandMiddle2
									{
										OFFSET 6.378677 0.000000 0.000000
										CHANNELS 3 Xrotation Yrotation Zrotation
										JOINT mixamorig:LeftHandMiddle3
										{
											OFFSET 6.148331 0.000000 0.000000
											CHANNELS 3 Xrotation Yrotation Zrotation
											JOINT mixamorig:LeftHandMiddle4
											{
												OFFSET 6.582504 0.000000 0.000000
												CHANNELS 3 Xrotation Yrotation Zrotation
												End Site
												{
													OFFSET -1.168900 6.395691 1.028606
												}
											}
										}
									}
								}
								JOINT mixamorig:LeftHandThumb1
								{
									OFFSET 7.235672 -3.848206 5.434273
									CHANNELS 3 Xrotation Yrotation Zrotation
									JOINT mixamorig:LeftHandThumb2
									{
										OFFSET 6.568451 -3.792297 3.792300
										CHANNELS 3 Xrotation Yrotation Zrotation
										JOINT mixamorig:LeftHandThumb3
										{
											OFFSET 6.063080 -3.500519 3.500518
											CHANNELS 3 Xrotation Yrotation Zrotation
											JOINT mixamorig:LeftHandThumb4
											{
												OFFSET 4.793182 -2.767334 2.767349
												CHANNELS 3 Xrotation Yrotation Zrotation
												End Site
												{
													OFFSET 0.101639 6.054260 1.275483
												}
											}
										}
									}
								}
								JOINT mixamorig:LeftHandIndex1
								{
									OFFSET 23.101074 -0.309540 4.992809
									CHANNELS 3 Xrotation Yrotation Zrotation
									JOINT mixamorig:LeftHandIndex2
									{
										OFFSET 6.226883 0.000000 0.000000
										CHANNELS 3 Xrotation Yrotation Zrotation
										JOINT mixamorig:LeftHandIndex3
										{
											OFFSET 6.094330 0.000000 0.000000
											CHANNELS 3 Xrotation Yrotation Zrotation
											JOINT mixamorig:LeftHandIndex4
											{
												OFFSET 5.482605 0.000000 0.000000
												CHANNELS 3 Xrotation Yrotation Zrotation
												End Site
												{
													OFFSET -1.427902 5.233032 0.797164
												}
											}
										}
									}
								}
								JOINT mixamorig:LeftHandRing1
								{
									OFFSET 22.299240 0.021149 -3.964172
									CHANNELS 3 Xrotation Yrotation Zrotation
									JOINT mixamorig:LeftHandRing2
									{
										OFFSET 6.321869 0.000000 0.000000
										CHANNELS 3 Xrotation Yrotation Zrotation
										JOINT mixamorig:LeftHandRing3
										{
											OFFSET 5.899796 0.000000 0.000000
											CHANNELS 3 Xrotation Yrotation Zrotation
											JOINT mixamorig:LeftHandRing4
											{
												OFFSET 6.517899 0.000000 0.000000
												CHANNELS 3 Xrotation Yrotation Zrotation
												End Site
												{
													OFFSET -1.637299 6.232208 0.980890
												}
											}
										}
									}
								}
								JOINT mixamorig:LeftHandPinky1
								{
									OFFSET 20.463791 -0.302338 -8.562233
									CHANNELS 3 Xrotation Yrotation Zrotation
									JOINT mixamorig:LeftHandPinky2
									{
										OFFSET 6.908646 0.000000 0.000000
										CHANNELS 3 Xrotation Yrotation Zrotation
										JOINT mixamorig:LeftHandPinky3
										{
											OFFSET 4.622849 0.000000 0.000000
											CHANNELS 3 Xrotation Yrotation Zrotation
											JOINT mixamorig:LeftHandPinky4
											{
												OFFSET 5.216080 0.000000 0.000000
												CHANNELS 3 Xrotation Yrotation Zrotation
												End Site
												{
													OFFSET -0.606308 5.116241 0.814926
												}
											}
										}
									}
								}
							}
						}
					}
				}
				JOINT mixamorig:RightShoulder
				{
					OFFSET -12.001300 18.284088 1.348900
					CHANNELS 3 Xrotation Yrotation Zrotation
					JOINT mixamorig:RightArm
					{
						OFFSET -25.308500 -0.751312 -5.164599
						CHANNELS 3 Xrotation Yrotation Zrotation
						JOINT mixamorig:RightForeArm
						{
							OFFSET -54.684429 0.000000 0.000000
							CHANNELS 3 Xrotation Yrotation Zrotation
							JOINT mixamorig:RightHand
							{
								OFFSET -55.150291 0.000000 0.000000
								CHANNELS 3 Xrotation Yrotation Zrotation
								JOINT mixamorig:RightHandMiddle1
								{
									OFFSET -23.317566 0.000000 0.000000
									CHANNELS 3 Xrotation Yrotation Zrotation
									JOINT mixamorig:RightHandMiddle2
									{
										OFFSET -6.378403 0.000000 0.000000
										CHANNELS 3 Xrotation Yrotation Zrotation
										JOINT mixamorig:RightHandMiddle3
										{
											OFFSET -6.148193 0.000000 0.000000
											CHANNELS 3 Xrotation Yrotation Zrotation
											JOINT mixamorig:RightHandMiddle4
											{
												OFFSET -6.583389 0.000000 0.000000
												CHANNELS 3 Xrotation Yrotation Zrotation
												End Site
												{
													OFFSET 1.171692 6.395905 1.029786
												}
											}
										}
									}
								}
								JOINT mixamorig:RightHandThumb1
								{
									OFFSET -7.190521 -3.860474 5.435846
									CHANNELS 3 Xrotation Yrotation Zrotation
									JOINT mixamorig:RightHandThumb2
									{
										OFFSET -6.567429 -3.791718 3.791708
										CHANNELS 3 Xrotation Yrotation Zrotation
										JOINT mixamorig:RightHandThumb3
										{
											OFFSET -6.062469 -3.500153 3.500166
											CHANNELS 3 Xrotation Yrotation Zrotation
											JOINT mixamorig:RightHandThumb4
											{
												OFFSET -4.792618 -2.767029 2.767022
												CHANNELS 3 Xrotation Yrotation Zrotation
												End Site
												{
													OFFSET -0.100327 6.053253 1.276754
												}
											}
										}
									}
								}
								JOINT mixamorig:RightHandIndex1
								{
									OFFSET -23.048981 -0.310791 4.992554
									CHANNELS 3 Xrotation Yrotation Zrotation
									JOINT mixamorig:RightHandIndex2
									{
										OFFSET -6.227539 0.000000 0.000000
										CHANNELS 3 Xrotation Yrotation Zrotation
										JOINT mixamorig:RightHandIndex3
										{
											OFFSET -6.095047 0.000000 0.000000
											CHANNELS 3 Xrotation Yrotation Zrotation
											JOINT mixamorig:RightHandIndex4
											{
												OFFSET -5.484772 0.000000 0.000000
												CHANNELS 3 Xrotation Yrotation Zrotation
												End Site
												{
													OFFSET 1.420593 5.237305 0.797056
												}
											}
										}
									}
								}
								JOINT mixamorig:RightHandRing1
								{
									OFFSET -22.246323 0.020569 -3.963762
									CHANNELS 3 Xrotation Yrotation Zrotation
									JOINT mixamorig:RightHandRing2
									{
										OFFSET -6.322128 0.000000 0.000000
										CHANNELS 3 Xrotation Yrotation Zrotation
										JOINT mixamorig:RightHandRing3
										{
											OFFSET -5.900024 0.000000 0.000000
											CHANNELS 3 Xrotation Yrotation Zrotation
											JOINT mixamorig:RightHandRing4
											{
												OFFSET -6.518356 0.000000 0.000000
												CHANNELS 3 Xrotation Yrotation Zrotation
												End Site
												{
													OFFSET 1.636398 6.232697 0.982186
												}
											}
										}
									}
								}
								JOINT mixamorig:RightHandPinky1
								{
									OFFSET -20.411011 -0.303314 -8.561701
									CHANNELS 3 Xrotation Yrotation Zrotation
									JOINT mixamorig:RightHandPinky2
									{
										OFFSET -6.907349 0.000000 0.000000
										CHANNELS 3 Xrotation Yrotation Zrotation
										JOINT mixamorig:RightHandPinky3
										{
											OFFSET -4.623840 0.000000 0.000000
											CHANNELS 3 Xrotation Yrotation Zrotation
											JOINT mixamorig:RightHandPinky4
											{
												OFFSET -5.218353 0.000000 0.000000
												CHANNELS 3 Xrotation Yrotation Zrotation
												End Site
												{
													OFFSET 0.602097 5.118835 0.816273
												}
											}
										}
									}
								}
							}
						}
					}
				}
			}
		}
	}
	JOINT mixamorig:LeftUpLeg
	{
		OFFSET 18.168400 -13.561905 -0.039000
		CHANNELS 3 Xrotation Yrotation Zrotation
		JOINT mixamorig:LeftLeg
		{
			OFFSET 0.577358 -80.825211 -3.695000
			CHANNELS 3 Xrotation Yrotation Zrotation
			JOINT mixamorig:LeftFoot
			{
				OFFSET -0.577356 -83.370262 -6.520700
				CHANNELS 3 Xrotation Yrotation Zrotation
				JOINT mixamorig:LeftToeBase
				{
					OFFSET 0.750401 -20.798306 25.135401
					CHANNELS 3 Xrotation Yrotation Zrotation
					JOINT mixamorig:LeftToe_End
					{
						OFFSET -0.000500 0.001200 19.917799
						CHANNELS 3 Xrotation Yrotation Zrotation
						End Site
						{
							OFFSET 0.000000 19.917805 0.000000
						}
					}
				}
			}
		}
	}
	JOINT mixamorig:RightUpLeg
	{
		OFFSET -18.162500 -13.585098 -0.041000
		CHANNELS 3 Xrotation Yrotation Zrotation
		JOINT mixamorig:RightLeg
		{
			OFFSET -0.595024 -80.945297 -3.631900
			CHANNELS 3 Xrotation Yrotation Zrotation
			JOINT mixamorig:RightFoot
			{
				OFFSET 0.595024 -83.218193 -6.561200
				CHANNELS 3 Xrotation Yrotation Zrotation
				JOINT mixamorig:RightToeBase
				{
					OFFSET -0.753601 -20.807106 25.115000
					CHANNELS 3 Xrotation Yrotation Zrotation
					JOINT mixamorig:RightToe_End
					{
						OFFSET 0.000299 0.001700 19.918200
						CHANNELS 3 Xrotation Yrotation Zrotation
						End Site
						{
							OFFSET 0.000000 19.918203 0.000000
						}
					}
				}
			}
		}
	}
}
MOTION
Frames: 5
Frame Time: 0.033333
0.460033 171.926468 0.781553 -1.180040 -7.380445 -6.155658 0.847832 0.184442 1.140299 1.697372 0.554083 1.144154 1.697371 0.554084 1.144154 0.880045 0.741385 5.163772 8.272968 4.485744 -3.973286 0.000001 -0.000000 -0.000000 0.000001 -0.000000 -0.000000 0.000001 -0.000000 -0.000000 0.574554 1.459913 -1.356461 7.256997 -27.289119 -40.152763 0.688335 -89.101580 0.743239 -95.471927 -7.532311 -10.145824 0.871476 3.925282 -38.082498 -1.274411 -3.198185 -43.082777 -0.000015 0.000003 0.000000 -0.000003 0.000000 0.000000 -38.931808 -1.707855 -7.796100 -4.035628 8.873357 -2.630138 0.000006 -0.000006 0.000002 0.000001 -0.000000 -0.000001 -4.588984 10.135892 -42.993148 0.262490 0.693315 -42.564014 -0.000001 -0.000007 -0.000001 -0.000002 0.000002 -0.000000 0.649734 1.472811 -42.631712 -1.259966 -3.280983 -42.301639 -0.000016 -0.000002 0.000004 -0.000001 0.000001 0.000001 3.026851 -5.201382 -43.478109 -0.234982 -1.865932 -15.882775 0.000000 0.000001 0.000003 -0.000001 -0.000001 0.000001 0.504079 6.548546 4.780858 -3.410157 -14.313933 69.274490 -0.060553 100.929009 0.021869 -45.270668 5.551179 21.058192 -3.646607 -0.302499 39.417739 -0.668864 2.057510 35.466492 -0.000007 -0.000004 -0.000000 0.000001 0.000000 0.000001 -30.449328 -12.807410 24.103304 -15.268125 -10.757856 -20.676955 0.000014 0.000011 0.000008 -0.000004 0.000001 -0.000001 -7.733597 -4.627659 44.995913 0.348579 -1.136058 30.276070 0.000001 0.000006 -0.000000 0.000002 0.000000 0.000000 -1.731999 2.396592 34.747904 -0.973450 3.100580 30.078490 0.000016 -0.000004 0.000007 0.000000 -0.000002 0.000003 -0.200025 5.902723 29.320646 -0.313928 2.491195 14.420783 -0.000018 -0.000007 -0.000004 -0.000001 0.000001 -0.000002 -42.323059 1.483106 8.107697 95.669702 -2.050287 -3.002799 -8.126924 6.833997 1.642481 0.003010 -0.026196 0.062612 -0.000000 -0.000000 -0.000000 -28.772114 -0.711604 7.150842 67.192942 0.935678 2.314324 -31.073423 9.635180 -4.021170 -8.985721 -0.073936 -0.178974 0.000000 0.000000 0.000000 
0.819768 174.663864 19.084837 -1.090581 -8.498673 -4.584078 0.751291 1.035582 0.675454 1.511990 2.135026 0.556295 1.511990 2.135023 0.556296 0.056271 0.721835 4.755094 7.184752 3.777521 -3.615913 -0.000001 0.000000 -0.000000 -0.000001 0.000000 -0.000000 -0.000001 0.000000 -0.000000 0.603851 2.021308 -1.998153 7.697834 -29.805962 -41.215233 0.442106 -87.323388 0.500025 -90.514227 -6.788796 -6.559725 0.837069 4.197145 -36.905647 -1.307733 -3.233415 -43.676775 -0.000011 -0.000005 -0.000000 -0.000003 -0.000002 0.000002 -38.990548 -1.711291 -7.823626 -3.606237 8.676775 -2.933484 0.000004 -0.000006 0.000001 0.000000 0.000001 0.000001 -4.788162 10.001621 -41.284331 0.268723 0.699110 -43.053059 -0.000002 -0.000006 -0.000004 -0.000000 -0.000000 -0.000001 0.707664 1.547927 -41.353131 -1.282259 -3.305244 -42.689567 -0.000012 -0.000003 0.000001 -0.000002 0.000006 0.000003 3.148010 -5.127313 -42.697398 -0.222736 -1.823606 -15.505189 0.000001 0.000001 0.000003 0.000000 0.000001 0.000001 0.517605 6.553222 4.285043 -1.207815 -15.269820 69.770587 -0.092757 101.189048 0.052349 -44.829178 6.456119 20.465294 -3.401374 -0.520663 39.377014 -0.692300 2.090052 36.114215 -0.000006 -0.000001 -0.000001 0.000005 0.000001 -0.000000 -29.819520 -12.875124 24.770675 -13.807910 -10.282939 -19.856632 0.000016 0.000011 0.000006 -0.000001 0.000003 0.000001 -7.444230 -4.860775 46.144522 0.362173 -1.156939 30.936048 0.000003 0.000002 -0.000002 0.000002 0.000002 -0.000003 -1.413693 2.042710 34.006655 -1.001004 3.147561 30.583917 0.000018 -0.000008 0.000008 0.000002 -0.000000 0.000002 0.234930 5.425813 28.709426 -0.307808 2.467720 14.279917 -0.000014 -0.000009 -0.000002 -0.000002 0.000001 0.000000 -47.899738 3.673184 7.571253 84.911341 -1.387553 -2.770701 -11.507770 11.385557 -10.219572 -6.205607 -0.076087 1.941650 0.000001 0.000000 -0.000000 -19.004979 2.176463 5.178183 61.219764 0.886165 2.158292 -33.402501 9.176146 -3.823053 -10.857508 -0.057595 -0.270270 -0.000000 0.000000 0.000000 
1.444790 178.604446 37.028328 -0.855454 -11.207384 -3.287678 0.760995 2.168434 0.233031 1.539983 4.327059 -0.006058 1.539985 4.327061 -0.006059 -0.841410 0.733281 4.480253 6.242068 3.442729 -3.433418 0.000001 -0.000000 0.000000 0.000001 -0.000000 0.000000 0.000001 -0.000000 0.000000 0.635741 2.436776 -2.595153 7.985289 -31.784610 -43.040266 0.400363 -85.811000 0.462411 -89.664101 -4.862176 -3.150652 0.770895 4.481135 -36.953147 -1.325938 -3.252342 -43.998480 -0.000016 0.000002 0.000005 -0.000001 0.000003 0.000000 -38.975931 -1.641199 -7.839160 -3.729662 8.733333 -2.846387 0.000004 -0.000005 0.000003 0.000001 0.000001 0.000001 -4.831583 10.218123 -40.627707 0.271965 0.702106 -43.306459 -0.000002 -0.000006 -0.000005 0.000001 0.000000 -0.000001 0.714999 1.940857 -40.863697 -1.294975 -3.318935 -42.909636 -0.000013 -0.000004 0.000005 0.000000 -0.000002 0.000001 3.202578 -5.736607 -41.817393 -0.215343 -1.797552 -15.273121 0.000002 -0.000001 0.000004 -0.000002 0.000001 0.000001 0.515479 6.910186 4.087046 0.458729 -16.184258 69.978532 -0.122078 100.842812 0.080195 -44.097703 7.673717 19.699895 -2.638690 -1.194600 38.186850 -0.698597 2.098619 36.285660 -0.000007 -0.000003 0.000000 -0.000001 0.000001 -0.000001 -29.582243 -12.667621 24.911237 -13.055071 -10.041012 -19.432819 0.000016 0.000009 0.000007 0.000002 0.000000 0.000001 -6.816827 -5.233848 45.261963 0.367166 -1.164473 31.175162 0.000004 0.000007 -0.000002 -0.000000 0.000001 -0.000000 -0.645176 1.080866 32.667842 -1.008354 3.160013 30.718018 0.000020 -0.000005 0.000006 -0.000001 0.000000 0.000000 1.049700 4.494419 27.352531 -0.295265 2.418926 13.987741 -0.000017 -0.000008 -0.000002 -0.000003 0.000002 -0.000001 -49.024284 5.663533 7.091039 68.595467 -0.946882 -2.370900 -17.307993 13.852297 -7.999522 -11.558266 -0.080908 0.603083 0.000001 0.000001 0.000000 -8.377592 4.894305 2.336079 51.137176 0.672813 1.854011 -31.129116 10.177351 -2.904779 -13.732182 -0.026758 -0.409391 -0.000000 0.000000 0.000000 
1.986442 182.367355 55.380043 -0.331567 -14.131578 -2.495986 0.679837 3.155208 -0.087593 1.381331 6.316283 -0.378937 1.381330 6.316287 -0.378938 -1.828047 0.752447 4.390410 5.926160 3.468922 -3.690085 -0.000000 0.000000 0.000000 -0.000000 0.000000 0.000000 -0.000000 0.000000 0.000000 0.694223 2.641412 -3.663758 8.994914 -32.481559 -43.698061 0.385840 -85.010727 0.450559 -91.178190 -2.886745 -1.384108 0.840087 4.121349 -37.599293 -1.292248 -3.217103 -43.401368 -0.000015 -0.000001 0.000003 -0.000001 -0.000002 0.000000 -38.933315 -1.587978 -7.726046 -4.207011 8.951643 -2.508790 0.000005 -0.000011 0.000002 0.000001 -0.000003 -0.000001 -4.655788 10.618859 -41.757174 0.265764 0.696384 -42.821960 0.000001 -0.000008 -0.000003 0.000004 -0.000003 -0.000003 0.696332 2.224082 -41.062336 -1.297796 -3.321978 -42.958512 -0.000015 -0.000005 0.000003 0.000001 0.000000 0.000001 3.235101 -6.091878 -41.354596 -0.215814 -1.799180 -15.287864 0.000004 -0.000003 0.000002 -0.000002 0.000001 -0.000000 0.499456 7.162468 4.416180 1.401606 -16.799989 69.691767 -0.140965 100.207153 0.099241 -43.646620 7.412962 20.021736 -2.418948 -1.397430 37.285579 -0.694344 2.092828 36.169584 -0.000006 -0.000005 0.000001 -0.000001 -0.000000 0.000001 -29.482966 -12.591601 24.954726 -12.067413 -9.726398 -18.876020 0.000018 0.000010 0.000002 0.000001 -0.000004 0.000005 -6.686486 -5.292232 43.888931 0.368173 -1.166027 31.224596 0.000003 0.000006 -0.000002 0.000001 0.000003 -0.000001 -0.548226 0.974461 32.079623 -0.988620 3.126590 30.357872 0.000016 -0.000007 0.000009 0.000000 0.000001 0.000004 0.999699 4.627562 26.760222 -0.283942 2.373806 13.717990 -0.000019 -0.000007 -0.000005 0.000001 -0.000004 -0.000002 -47.831309 6.484568 6.635837 52.199516 -0.681916 -1.887219 -18.235217 7.981590 1.908692 -14.314955 -0.109933 0.729547 -0.000001 0.000000 0.000000 3.089494 6.552824 -1.013818 37.482517 0.309377 1.394486 -24.159494 10.895934 -1.514057 -18.934205 0.046667 -0.655826 -0.000000 0.000000 0.000000 
2.465951 183.779160 74.300568 0.203528 -15.973888 -2.153407 0.454563 3.591565 -0.188888 0.922729 7.288258 -0.395314 0.922729 7.288254 -0.395314 -2.660390 0.814010 4.434061 6.931493 3.897042 -4.232340 0.000000 -0.000001 0.000000 0.000000 -0.000001 0.000000 0.000000 -0.000001 0.000000 0.783011 2.688437 -5.305042 10.916353 -31.617625 -42.693245 0.424389 -85.368123 0.489592 -92.650956 -1.739593 -0.957000 0.994433 3.248855 -38.589268 -1.231263 -3.151415 -42.303419 -0.000015 -0.000001 -0.000000 0.000001 -0.000001 -0.000001 -38.883123 -1.518667 -7.592680 -4.827056 9.234395 -2.068312 0.000007 -0.000007 0.000002 0.000000 0.000002 0.000001 -4.354011 11.023658 -43.773849 0.258616 0.689666 -42.257547 -0.000000 -0.000007 -0.000005 -0.000000 -0.000001 0.000000 0.666474 2.367147 -41.813523 -1.288540 -3.312002 -42.798286 -0.000018 -0.000001 0.000004 0.000001 0.000001 -0.000001 3.190409 -6.113352 -41.616288 -0.220005 -1.814061 -15.420120 0.000001 0.000001 0.000004 -0.000001 -0.000003 0.000000 0.481168 7.064479 5.067757 1.424944 -16.862130 68.847467 -0.144126 100.072291 0.104027 -43.912044 5.160168 21.701389 -3.564580 -0.338481 38.433505 -0.687873 2.083966 35.992648 -0.000005 -0.000001 -0.000001 0.000001 0.000001 -0.000000 -29.154519 -12.229157 25.405568 -10.426159 -9.210161 -17.949281 0.000014 0.000010 0.000006 -0.000002 0.000002 0.000001 -7.711007 -4.596647 43.975910 0.373971 -1.174674 31.500078 0.000003 0.000004 -0.000003 -0.000000 0.000001 0.000001 -2.008983 2.873870 33.689358 -0.947283 3.055111 29.591829 0.000017 -0.000006 0.000008 -0.000000 -0.000000 -0.000001 -0.995014 7.076181 28.408220 -0.279611 2.356391 13.613913 -0.000017 -0.000010 -0.000004 0.000001 0.000000 0.000001 -46.070476 6.198080 6.611899 41.520744 -0.567456 -1.542047 -13.554588 0.679345 3.876075 -15.807867 -0.128163 0.797412 0.000003 -0.000000 -0.000000 6.571437 7.091769 -3.122516 35.732172 0.107525 1.323987 -2.751002 8.781432 -4.032433 -41.539988 0.545793 0.702193 0.000000 0.000000 -0.000000 
